<svg width="295" height="60" version="1.1" viewBox="0 0 295 60" xmlns="http://www.w3.org/2000/svg">
 <g transform="matrix(.37939 0 0 .37939 -42.423 -83.816)">
  <rect transform="matrix(.39537 0 0 .39537 0 100.32)" x="316.16" y="338.38" width="333.33" height="333.33" rx="13.333" ry="13.333" fill="#00285c"/>
  <path transform="matrix(.39537 0 0 .39537 0 100.32)" d="m482.51 580.05q-14.322 0-25.555-5.0515-11.232-5.0218-19.047-14.114t-11.886-21.603q-4.0709-12.51-4.0709-27.278v-72.326q0-2.9715 0.77258-5.1109 0.74287-2.1395 2.7635-3.328 2.0503-1.1886 6.3292-1.1886t6.4184 1.1886 2.7635 3.328q0.65373 2.1395 0.65373 5.3486v72.088q0 14.322 4.6949 25.258 4.7246 10.905 13.906 17.205 9.2116 6.3292 22.91 6.3292 12.837 0 22.019-6.0024 9.2116-6.0024 14.114-16.908 4.9326-10.905 4.9326-26.09v-73.395q0-2.5555 0.74286-4.3681 0.74287-1.8423 2.8823-2.912 2.1395-1.0697 6.4184-1.0697 4.0709 0 6.1212 1.1886 2.0206 1.1886 2.6743 3.328 0.62401 2.1395 0.62401 5.3486v72.504q0 14.976-4.0709 27.278-4.0412 12.302-11.856 21.395t-19.255 14.025q-11.44 4.9326-26 4.9326z" fill="#f58345"/>
  <path transform="matrix(.39537 0 0 .39537 0 100.32)" d="m791.95 578.59q-13.985 0-24.952-4.9323-10.967-4.9033-18.598-13.781-7.6306-8.8782-11.605-21.093-3.9748-12.215-3.9748-26.634v-70.619q0-2.9014 0.75435-4.9903 0.72534-2.089 2.6983-3.2495 2.0019-1.1606 6.1799-1.1606t6.2669 1.1606q2.089 1.1605 2.6983 3.2495 0.6383 2.089 0.6383 5.2224v70.387q0 13.985 4.5841 24.662 4.6132 10.648 13.578 16.799 8.9942 6.1799 22.369 6.1799 12.534 0 21.499-5.8607 8.9942-5.8607 13.781-16.509 4.8162-10.648 4.8162-25.474v-71.663q0-2.4952 0.72534-4.265 0.72534-1.7988 2.8143-2.8433 2.089-1.0445 6.2669-1.0445 3.9748 0 5.9768 1.1606 1.9729 1.1605 2.6112 3.2495 0.60929 2.089 0.60929 5.2224v70.793q0 14.623-3.9749 26.634-3.9458 12.012-11.576 20.89t-18.801 13.694q-11.17 4.8162-25.387 4.8162zm97.34-0.6383q-3.5396 0-5.5416-1.2476-1.9729-1.2476-2.6983-3.4526t-0.72534-5.1064v-127.22q0-2.7273 0.81238-4.6132 0.8414-1.8569 3.0464-3.0174 2.176-1.1606 6.1509-1.1606 4.6132 0 6.47 0.8414 1.8859 0.84139 3.7718 2.9304l78.54 111.12v-106.1q0-2.7273 0.72534-4.6132 0.75435-1.8569 2.8433-3.0174 2.089-1.1606 6.0348-1.1606 3.7718 0 5.7447 1.2766 2.0019 1.2476 2.7273 3.4236 0.72534 2.205 0.72534 4.9323v126.59q0 2.6983-0.92844 4.9033-0.95744 2.205-3.1335 3.4526-2.205 1.2476-6.1799 1.2476-3.3366 0-5.5126-0.84139-2.205-0.84139-4.0909-3.1335l-78.946-110.28v104.65q0 2.6983-0.84139 4.9033-0.8414 2.205-2.9304 3.4526-2.089 1.2476-6.0638 1.2476zm147.91 0q-4.178 0-6.1799-1.1605-1.9729-1.1315-2.6112-3.3366-0.6093-2.176-0.6093-5.1064v-126.82q0-2.9014 0.7253-4.9903 0.7254-2.089 2.7273-3.2495 1.9729-1.1606 6.1509-1.1606 4.1779 0 6.1509 1.1606 2.0019 1.1605 2.5241 3.2495 0.5223 2.089 0.5223 5.2224v126.79q0 2.9304-0.6383 5.0193-0.6093 2.089-2.6112 3.2205-1.973 1.1605-6.1509 1.1605zm46.364 0q-3.9748 0-5.9477-1.1605-1.973-1.1315-2.6113-3.3366-0.6383-2.176-0.6383-5.1064v-126.82q0-2.6983 0.7544-4.7872 0.7253-2.089 2.8143-3.3366 2.089-1.2766 5.8317-1.2766h45.754q10.039 0 18.482 3.0464 8.472 3.0174 14.855 9.1973 6.354 6.1509 9.9227 14.913 3.5396 8.7911 3.5396 20.28 0 11.286-3.5396 20.048-3.5687 8.7621-10.039 14.739-6.47 5.9478-14.942 9.0812-8.4429 3.1335-18.482 3.1335h-35.919v41.983q0 2.9304-0.7543 5.0193-0.7254 2.089-2.6983 3.2205-2.0019 1.1605-6.383 1.1605zm9.8356-126.79v56.402h36.122q8.3559 0 14.623-3.2495 6.2669-3.2495 9.8356-9.6035 3.5396-6.383 3.5396-15.58 0-8.7621-3.3365-15.029-3.3366-6.2669-9.7195-9.6035-6.383-3.3366-15.145-3.3366zm166.28 127.43q-14.014 0-24.981-4.9323-10.967-4.9033-18.569-13.781-7.6306-8.8782-11.605-21.093-3.9749-12.215-3.9749-26.634v-70.619q0-2.9014 0.7254-4.9903 0.7543-2.089 2.7272-3.2495 1.973-1.1606 6.1509-1.1606 4.178 0 6.2669 1.1606 2.089 1.1605 2.7273 3.2495 0.6383 2.089 0.6383 5.2224v70.387q0 13.985 4.5841 24.662 4.5842 10.648 13.578 16.799 8.9942 6.1799 22.34 6.1799 12.534 0 21.528-5.8607 8.9942-5.8607 13.781-16.509 4.8162-10.648 4.8162-25.474v-71.663q0-2.4952 0.7254-4.265 0.7253-1.7988 2.8143-2.8433t6.2669-1.0445q3.9749 0 5.9478 1.1606 2.0019 1.1605 2.6112 3.2495 0.6383 2.089 0.6383 5.2224v70.793q0 14.623-3.9748 26.634-3.9749 12.012-11.576 20.89-7.6306 8.8781-18.801 13.694-11.199 4.8162-25.387 4.8162zm99.836-0.6383q-3.9458 0-6.0348-1.1605-2.089-1.1315-2.6112-3.3366-0.5223-2.176-0.5223-5.1064v-127.02q0-2.6983 0.7254-4.7002 0.7253-1.9729 2.6982-3.2205 2.002-1.2766 5.9768-1.2766h46.161q10.242 0 18.685 3.0464 8.4719 3.0174 14.739 8.8781 6.2669 5.8317 9.7195 14.71 3.4236 8.8782 3.4236 20.6 0 7.3114-2.2921 15.145-2.292 7.8336-6.9922 14.71-4.7002 6.9052-12.012 11.489-7.3114 4.6132-17.756 5.2224h-44.275v42.621q0 2.9304-0.7543 5.0193-0.7254 2.089-2.6983 3.2205-2.0019 1.1605-6.1799 1.1605zm89.623-2.2921q-4.3811 2.9304-7.3985 1.8859-3.0464-1.0445-5.7447-5.0193l-33.424-53.472 20.658-3.1335 28.839 45.957q2.089 3.3366 2.6112 5.6286 0.5223 2.2921-0.8414 4.178-1.3636 1.8859-4.7001 3.9748zm-79.99-124.5v56.402h41.344q4.8163 0 8.9942-1.7988 4.178-1.7698 7.3114-5.3095 3.1335-3.5687 5.0194-8.7911 1.8568-5.2224 1.8568-12.534 0-8.9652-3.2205-15.232-3.2495-6.2669-9.5164-9.5164-6.2669-3.2205-15.464-3.2205zm177.77-13.172 60.58 126.59q1.6537 3.1335 1.7698 5.3385 0.116 2.176-1.3636 3.9749-1.4507 1.7698-4.5842 3.2205-5.0193 2.2921-7.8336 1.0445-2.8144-1.2476-5.1354-6.0638l-52.224-111.12-51.789 110.92q-2.2921 4.8162-5.1354 6.0638-2.8143 1.2476-8.0367-1.0445-3.1335-1.2476-4.4971-3.1335-1.3347-1.8859-1.0445-4.5841 0.3191-2.7273 2.0019-6.2669l59.942-125.14q1.2476-2.5242 3.6557-4.0909 2.4081-1.5667 5.1354-1.5667 1.8569 0 3.5396 0.6383 1.6828 0.6383 2.9304 1.8859t2.089 3.3366zm30.696 98.385h-78.743l7.1083-16.074h64.758zm90.87 43.665q-7.9207 0-14.942-1.8859-6.9923-1.8859-12.737-5.1064-5.7447-3.2495-10.126-7.2244-4.3811-3.9458-6.9052-7.9207-2.2921-3.3366-2.9014-5.5416-0.6383-2.205 0.2901-4.294 0.9575-2.089 3.8879-4.5841 3.3365-2.4952 5.8317-2.4081 2.5242 0.11606 4.7002 2.0019 2.205 1.8569 4.4971 4.9903 5.2224 7.1083 12.737 10.358 7.5145 3.2205 14.826 3.2205 9.4004 0 16.712-2.4952 7.3114-2.4952 11.605-7.6306 4.2941-5.1064 4.2941-13.259 0-6.6731-3.3656-11.286-3.3366-4.5841-8.9652-7.8337-5.6576-3.2205-12.534-5.6286-6.9052-2.4081-14.014-4.7002-5.6286-1.8859-11.054-4.294-5.4255-2.4081-10.242-5.4255-4.8163-3.0174-8.472-7.1954t-5.6286-9.8356q-1.9729-5.6286-1.9729-13.143 0-11.489 5.5125-20.28 5.5416-8.7621 15.58-13.665 10.01-4.9323 23.182-4.9323 7.7176 0 14.217 1.4797 6.47 1.4507 11.489 3.8588 4.9904 2.4081 8.559 5.0193 3.5397 2.6112 5.4256 4.9033 3.7717 3.9749 4.1779 6.6731 0.4062 2.7273-3.1335 6.7021-3.3365 3.7428-6.47 3.9749-3.1334 0.20309-6.9052-2.9304-3.9749-4.6132-8.2398-7.1083-4.2941-2.4952-8.9942-3.4526-4.7002-0.92843-10.329-0.92843-5.4255 0-10.126 1.3636-4.7002 1.3346-8.1528 4.0619t-5.3385 6.5861q-1.8859 3.8588-1.8859 8.8781 0 5.6286 3.0465 9.6035 3.0174 3.9749 8.0367 6.7892t11.286 5.0193q6.2669 2.176 13.143 4.265 7.5435 2.3211 14.855 5.5416 7.3115 3.2495 13.143 7.9497 5.8607 4.7002 9.4004 11.809 3.5686 7.0793 3.5686 17.524 0 10.445-4.0909 18.395-4.0619 7.9497-11.17 13.259-7.1083 5.3385-16.19 8.0368-9.0812 2.7273-19.12 2.7273zm189.69-0.6383q-14.826 0-27.882-5.6286-13.056-5.6286-22.979-15.783-9.9226-10.126-15.58-23.269-5.6286-13.172-5.6286-28.433 0-15.435 5.4256-29.13 5.4255-13.694 15.145-23.907 9.7196-10.242 22.456-16.103 12.737-5.8317 27.157-5.8317 15.029 0 28.085 5.6286t22.776 15.783q9.7196 10.126 15.348 23.704 5.6576 13.578 5.6576 29.043 0 15.232-5.5416 28.491-5.5416 13.288-15.145 23.617-9.6035 10.329-22.253 16.074-12.621 5.7447-27.041 5.7447zm-1.2476-19.004q10.851 0 20.368-4.178 9.4874-4.178 16.596-11.809 7.1083-7.6016 11.17-17.524 4.091-9.9226 4.091-21.644 0-11.257-4.091-21.18-4.0619-9.9226-11.286-17.553-7.1954-7.6306-16.596-12.012-9.4004-4.381-20.048-4.381-10.648 0-20.048 4.381-9.4004 4.381-16.625 11.896-7.1954 7.5145-11.286 17.553-4.0619 10.039-4.0619 21.528 0 11.257 4.0619 21.296 4.0909 10.039 11.286 17.553 7.2243 7.5145 16.509 11.809 9.2843 4.265 19.961 4.265zm100.47 17.553q-3.7718 0-5.7447-1.2476-2.0019-1.2476-2.8143-3.4526-0.8414-2.205-0.8414-4.9033v-127.02q0-2.6983 0.8414-4.7002 0.8124-1.9729 2.9013-3.2205 2.089-1.2766 6.0639-1.2766 3.1334 0 5.0193 0.43521 1.8859 0.40619 3.0174 1.1315 1.1606 0.75436 2.4081 2.205l54.516 78.975h-6.47l55.155-79.613q1.2476-1.4507 2.4952-2.089 1.2766-0.60928 3.2495-0.81238 1.9729-0.23211 4.7002-0.23211 3.9748 0 5.9478 1.2766 2.0019 1.2476 2.8143 3.4236 0.8414 2.205 0.8414 4.9323v126.99q0 2.5242-0.8414 4.6132-0.8124 2.089-2.9014 3.3366t-6.0638 1.2476q-3.7718 0-5.7447-1.2476-2.0019-1.2476-2.7273-3.4526-0.7253-2.205-0.7253-4.9033v-104.88l-44.71 65.803q-0.6093 1.0445-1.6538 2.0019-1.0444 0.92844-2.6112 1.5667-1.5667 0.60928-3.8878 0.60928-2.4951 0-3.8588-0.60928-1.3636-0.6383-2.4081-1.5667-1.0445-0.95744-2.089-2.205l-44.478-65.368v105.06q0 2.5242-0.7254 4.6132-0.7543 2.089-2.7273 3.3366-1.9729 1.2476-5.9477 1.2476zm205.13 2.089q-7.9207 0-14.942-1.8859-6.9922-1.8859-12.737-5.1064-5.7447-3.2495-10.126-7.2244-4.3811-3.9458-6.9053-7.9207-2.292-3.3366-2.9013-5.5416-0.6383-2.205 0.2901-4.294 0.9575-2.089 3.8878-4.5841 3.3366-2.4952 5.8318-2.4081 2.5241 0.11606 4.7002 2.0019 2.205 1.8569 4.497 4.9903 5.2225 7.1083 12.737 10.358 7.5145 3.2205 14.826 3.2205 9.4004 0 16.712-2.4952 7.3114-2.4952 11.605-7.6306 4.294-5.1064 4.294-13.259 0-6.6731-3.3655-11.286-3.3366-4.5841-8.9652-7.8337-5.6577-3.2205-12.534-5.6286-6.9052-2.4081-14.014-4.7002-5.6286-1.8859-11.054-4.294-5.4255-2.4081-10.242-5.4255-4.8162-3.0174-8.4719-7.1954t-5.6286-9.8356q-1.973-5.6286-1.973-13.143 0-11.489 5.5126-20.28 5.5416-8.7621 15.58-13.665 10.01-4.9323 23.182-4.9323 7.7176 0 14.217 1.4797 6.4701 1.4507 11.489 3.8588 4.9903 2.4081 8.559 5.0193 3.5397 2.6112 5.4255 4.9033 3.7718 3.9749 4.178 6.6731 0.4062 2.7273-3.1335 6.7021-3.3365 3.7428-6.47 3.9749-3.1335 0.20309-6.9052-2.9304-3.9749-4.6132-8.2399-7.1083-4.294-2.4952-8.9942-3.4526-4.7002-0.92843-10.329-0.92843-5.4255 0-10.126 1.3636-4.7002 1.3346-8.1528 4.0619t-5.3385 6.5861q-1.8859 3.8588-1.8859 8.8781 0 5.6286 3.0464 9.6035 3.0174 3.9749 8.0368 6.7892 5.0193 2.8143 11.286 5.0193 6.2669 2.176 13.143 4.265 7.5435 2.3211 14.855 5.5416 7.3114 3.2495 13.143 7.9497 5.8607 4.7002 9.4003 11.809 3.5687 7.0793 3.5687 17.524 0 10.445-4.0909 18.395-4.0619 7.9497-11.17 13.259-7.1083 5.3385-16.19 8.0368-9.0812 2.7273-19.12 2.7273z" fill="#00285c"/>
 </g>
</svg>
